<svg width="22" height="22" viewBox="0 0 22 22" fill="none" xmlns="http://www.w3.org/2000/svg">
<path d="M10.9999 13.75C9.31325 13.75 9.16659 12.9617 9.16659 12.8333H7.33325C7.33325 13.6767 7.93825 15.1708 10.0833 15.51V16.5H11.9166V15.51C13.7499 15.1983 14.6666 14.0158 14.6666 12.8333C14.6666 11.8067 14.1899 10.0833 10.9999 10.0833C9.16659 10.0833 9.16659 9.50583 9.16659 9.16667C9.16659 8.8275 9.80825 8.25 10.9999 8.25C12.1916 8.25 12.2741 8.83667 12.2833 9.16667H14.1166C14.1042 8.54219 13.8796 7.94054 13.4797 7.46071C13.0799 6.98088 12.5286 6.65146 11.9166 6.52667V5.5H10.0833V6.49917C8.24992 6.80167 7.33325 7.98417 7.33325 9.16667C7.33325 10.1933 7.80992 11.9167 10.9999 11.9167C12.8333 11.9167 12.8333 12.54 12.8333 12.8333C12.8333 13.1267 12.2649 13.75 10.9999 13.75Z" fill="white"/>
<path d="M4.58325 1.83337H1.83325V3.66671H3.66659V19.25C3.66659 19.4932 3.76316 19.7263 3.93507 19.8982C4.10698 20.0701 4.34014 20.1667 4.58325 20.1667H17.4166C17.6597 20.1667 17.8929 20.0701 18.0648 19.8982C18.2367 19.7263 18.3333 19.4932 18.3333 19.25V3.66671H20.1666V1.83337H4.58325ZM16.4999 18.3334H5.49992V3.66671H16.4999V18.3334Z" fill="white"/>
</svg>
