<svg width="28" height="28" viewBox="0 0 28 28" fill="none" xmlns="http://www.w3.org/2000/svg">
<path fill-rule="evenodd" clip-rule="evenodd" d="M14.0001 24.7936C19.9613 24.7936 24.7937 19.9611 24.7937 14C24.7937 8.03879 19.9613 3.20631 14.0001 3.20631C8.03891 3.20631 3.20643 8.03879 3.20643 14C3.20643 19.9611 8.03891 24.7936 14.0001 24.7936ZM27.3334 14C27.3334 21.3638 21.3639 27.3333 14.0001 27.3333C6.63629 27.3333 0.666748 21.3638 0.666748 14C0.666748 6.63616 6.63629 0.666626 14.0001 0.666626C21.3639 0.666626 27.3334 6.63616 27.3334 14Z" fill="#5D5FEF"/>
<path d="M6.53318 11.7999C6.53318 11.358 6.89135 10.9999 7.33318 10.9999C7.775 10.9999 8.13318 11.358 8.13318 11.7999C8.13318 12.4626 8.67043 12.9999 9.33318 12.9999C9.99592 12.9999 10.5332 12.4626 10.5332 11.7999C10.5332 11.358 10.8913 10.9999 11.3332 10.9999C11.775 10.9999 12.1332 11.358 12.1332 11.7999C12.1332 13.3463 10.8796 14.5999 9.33318 14.5999C7.78678 14.5999 6.53318 13.3463 6.53318 11.7999Z" fill="#5D5FEF"/>
<path d="M15.8667 11.7999C15.8667 11.358 16.2248 10.9999 16.6667 10.9999C17.1085 10.9999 17.4667 11.358 17.4667 11.7999C17.4667 12.4626 18.0039 12.9999 18.6667 12.9999C19.3294 12.9999 19.8667 12.4626 19.8667 11.7999C19.8667 11.358 20.2248 10.9999 20.6667 10.9999C21.1085 10.9999 21.4667 11.358 21.4667 11.7999C21.4667 13.3463 20.2131 14.5999 18.6667 14.5999C17.1203 14.5999 15.8667 13.3463 15.8667 11.7999Z" fill="#5D5FEF"/>
<path d="M11.9092 19.5812C11.5514 19.8991 11.0036 19.8668 10.6857 19.5091C10.3677 19.1513 10.4 18.6035 10.7578 18.2855C11.6609 17.483 12.8009 17.1003 14.1112 17.1353C15.3245 17.14 16.3811 17.5245 17.2406 18.2838C17.5993 18.6007 17.6332 19.1484 17.3164 19.5071C16.9995 19.8659 16.4518 19.8998 16.093 19.5829C15.5556 19.1081 14.9061 18.8717 14.0848 18.8683C13.18 18.8443 12.4703 19.0825 11.9092 19.5812Z" fill="#5D5FEF"/>
</svg>
