<svg width="28" height="28" viewBox="0 0 28 28" fill="none" xmlns="http://www.w3.org/2000/svg">
<path fill-rule="evenodd" clip-rule="evenodd" d="M14.0001 24.7936C19.9613 24.7936 24.7937 19.9611 24.7937 14C24.7937 8.03879 19.9613 3.20631 14.0001 3.20631C8.03891 3.20631 3.20643 8.03879 3.20643 14C3.20643 19.9611 8.03891 24.7936 14.0001 24.7936ZM27.3334 14C27.3334 21.3638 21.3639 27.3333 14.0001 27.3333C6.63628 27.3333 0.666748 21.3638 0.666748 14C0.666748 6.63616 6.63628 0.666626 14.0001 0.666626C21.3639 0.666626 27.3334 6.63616 27.3334 14Z" fill="#5D5FEF"/>
<path d="M9.33342 14C10.438 14 11.3334 13.1046 11.3334 12C11.3334 10.8954 10.438 9.99999 9.33342 9.99999C8.22885 9.99999 7.33342 10.8954 7.33342 12C7.33342 13.1046 8.22885 14 9.33342 14Z" fill="#5D5FEF"/>
<path fill-rule="evenodd" clip-rule="evenodd" d="M11.3334 12C11.3334 13.1046 10.438 14 9.33342 14C8.22885 14 7.33342 13.1046 7.33342 12C7.33342 10.8954 8.22885 9.99999 9.33342 9.99999C10.438 9.99999 11.3334 10.8954 11.3334 12Z" fill="#5D5FEF"/>
<path d="M18.6669 14C19.7715 14 20.6669 13.1046 20.6669 12C20.6669 10.8954 19.7715 9.99999 18.6669 9.99999C17.5623 9.99999 16.6669 10.8954 16.6669 12C16.6669 13.1046 17.5623 14 18.6669 14Z" fill="#5D5FEF"/>
<path fill-rule="evenodd" clip-rule="evenodd" d="M20.6669 12C20.6669 13.1046 19.7715 14 18.6669 14C17.5623 14 16.6669 13.1046 16.6669 12C16.6669 10.8954 17.5623 9.99999 18.6669 9.99999C19.7715 9.99999 20.6669 10.8954 20.6669 12Z" fill="#5D5FEF"/>
<path fill-rule="evenodd" clip-rule="evenodd" d="M9.00024 19.3332C9.00024 18.7809 9.44796 18.3332 10.0002 18.3332H18.0002C18.5525 18.3332 19.0002 18.7809 19.0002 19.3332C19.0002 19.8855 18.5525 20.3332 18.0002 20.3332H10.0002C9.44796 20.3332 9.00024 19.8855 9.00024 19.3332Z" fill="#5D5FEF"/>
</svg>
