<svg width="28" height="28" viewBox="0 0 28 28" fill="none" xmlns="http://www.w3.org/2000/svg">
<path fill-rule="evenodd" clip-rule="evenodd" d="M14.0001 24.7936C19.9613 24.7936 24.7937 19.9611 24.7937 14C24.7937 8.03879 19.9613 3.20631 14.0001 3.20631C8.03891 3.20631 3.20643 8.03879 3.20643 14C3.20643 19.9611 8.03891 24.7936 14.0001 24.7936ZM27.3334 14C27.3334 21.3638 21.3639 27.3333 14.0001 27.3333C6.63629 27.3333 0.666748 21.3638 0.666748 14C0.666748 6.63616 6.63629 0.666626 14.0001 0.666626C21.3639 0.666626 27.3334 6.63616 27.3334 14Z" fill="#5D5FEF"/>
<path d="M8.07732 15.9745C7.98207 15.1762 8.55205 14.4518 9.35039 14.3566C9.43641 14.348 9.43641 14.348 9.52298 14.3463H18.477C18.5635 14.348 18.5635 14.348 18.6495 14.3566C19.4478 14.4518 20.0178 15.1762 19.9226 15.9745C19.5644 18.9765 17.0509 21.3333 13.9999 21.3333C10.949 21.3333 8.43545 18.9765 8.07732 15.9745Z" fill="#5D5FEF"/>
<path d="M17.2446 11.2933C16.9953 11.6124 16.5344 11.669 16.2153 11.4196C15.8961 11.1703 15.8396 10.7094 16.0889 10.3903C16.6321 9.69512 17.3601 9.33745 18.1954 9.3588C18.9846 9.36169 19.6629 9.72297 20.1806 10.3937C20.4281 10.7143 20.3688 11.1748 20.0482 11.4223C19.7276 11.6698 19.267 11.6105 19.0196 11.2898C18.7689 10.9651 18.5089 10.8266 18.1741 10.8252C17.796 10.8156 17.5068 10.9577 17.2446 11.2933Z" fill="#5D5FEF"/>
<path d="M9.24454 11.2933C8.99518 11.6124 8.53432 11.669 8.21518 11.4196C7.89604 11.1703 7.83947 10.7094 8.08883 10.3903C8.63199 9.69512 9.36003 9.33745 10.1953 9.3588C10.9845 9.36169 11.6628 9.72297 12.1805 10.3937C12.428 10.7143 12.3687 11.1748 12.0481 11.4223C11.7275 11.6698 11.267 11.6105 11.0195 11.2898C10.7688 10.9651 10.5089 10.8266 10.174 10.8252C9.79595 10.8156 9.50673 10.9577 9.24454 11.2933Z" fill="#5D5FEF"/>
</svg>
