<svg width="28" height="28" viewBox="0 0 28 28" fill="none" xmlns="http://www.w3.org/2000/svg">
<path fill-rule="evenodd" clip-rule="evenodd" d="M14.0001 24.7936C19.9612 24.7936 24.7937 19.9611 24.7937 14C24.7937 8.03879 19.9612 3.20631 14.0001 3.20631C8.03891 3.20631 3.20643 8.03879 3.20643 14C3.20643 19.9611 8.03891 24.7936 14.0001 24.7936ZM27.3334 14C27.3334 21.3638 21.3639 27.3333 14.0001 27.3333C6.63628 27.3333 0.666748 21.3638 0.666748 14C0.666748 6.63616 6.63628 0.666626 14.0001 0.666626C21.3639 0.666626 27.3334 6.63616 27.3334 14Z" fill="#5D5FEF"/>
<path d="M10.6823 16.1319C10.3869 15.7552 9.84217 15.6892 9.4655 15.9846C9.08883 16.2799 9.02289 16.8247 9.31823 17.2014C10.5279 18.7442 12.1486 19.5333 14.1079 19.5333C16.0844 19.5333 17.6526 18.7275 18.7181 17.1522C18.9863 16.7557 18.8823 16.2169 18.4858 15.9487C18.0893 15.6806 17.5505 15.7846 17.2824 16.181C16.5442 17.2724 15.5175 17.7999 14.1079 17.7999C12.6812 17.7999 11.5634 17.2557 10.6823 16.1319Z" fill="#5D5FEF"/>
<path d="M17.2031 11.1414C16.9269 11.4377 16.4629 11.4539 16.1667 11.1777C15.8704 10.9016 15.8542 10.4375 16.1304 10.1413C16.6405 9.5941 17.3043 9.32077 18.0562 9.33687C18.7654 9.33904 19.3862 9.61613 19.8728 10.1446C20.1472 10.4425 20.1281 10.9064 19.8302 11.1808C19.5323 11.4551 19.0684 11.4361 18.794 11.1381C18.5822 10.9081 18.3499 10.8044 18.0383 10.8034C17.6861 10.7959 17.4251 10.9033 17.2031 11.1414Z" fill="#5D5FEF"/>
<path d="M9.20304 11.1414C8.92686 11.4377 8.46282 11.4539 8.16659 11.1777C7.87035 10.9016 7.85409 10.4375 8.13028 10.1413C8.64042 9.5941 9.30426 9.32077 10.0561 9.33687C10.7654 9.33904 11.3861 9.61613 11.8727 10.1446C12.1471 10.4425 12.128 10.9064 11.8301 11.1808C11.5322 11.4551 11.0683 11.4361 10.7939 11.1381C10.5821 10.9081 10.3498 10.8044 10.0383 10.8034C9.68597 10.7959 9.42503 10.9033 9.20304 11.1414Z" fill="#5D5FEF"/>
</svg>
