<svg width="28" height="28" viewBox="0 0 28 28" fill="none" xmlns="http://www.w3.org/2000/svg">
<path fill-rule="evenodd" clip-rule="evenodd" d="M14.0001 24.7936C19.9613 24.7936 24.7937 19.9611 24.7937 14C24.7937 8.03879 19.9613 3.20631 14.0001 3.20631C8.03891 3.20631 3.20643 8.03879 3.20643 14C3.20643 19.9611 8.03891 24.7936 14.0001 24.7936ZM27.3334 14C27.3334 21.3638 21.3639 27.3333 14.0001 27.3333C6.63628 27.3333 0.666748 21.3638 0.666748 14C0.666748 6.63616 6.63628 0.666626 14.0001 0.666626C21.3639 0.666626 27.3334 6.63616 27.3334 14Z" fill="#5D5FEF"/>
<path d="M10.7127 21.1839C10.4402 21.5774 9.9003 21.6755 9.50678 21.403C9.11327 21.1306 9.01515 20.5907 9.28763 20.1971C10.4912 18.459 12.1233 17.5591 14.1078 17.5591C16.1095 17.5591 17.6877 18.4774 18.7442 20.2461C18.9896 20.657 18.8555 21.1891 18.4446 21.4346C18.0337 21.68 17.5016 21.5459 17.2561 21.1349C16.5089 19.884 15.4922 19.2925 14.1078 19.2925C12.7063 19.2925 11.6 19.9024 10.7127 21.1839Z" fill="#5D5FEF"/>
<path d="M9.36143 14.0354C9.07527 13.6517 8.53225 13.5727 8.14857 13.8588C7.76488 14.145 7.68583 14.688 7.972 15.0717C8.50215 15.7825 9.2286 16.1564 10.0572 16.1342C10.8487 16.1311 11.526 15.7532 12.0311 15.0676C12.315 14.6823 12.2328 14.1397 11.8475 13.8558C11.4621 13.5719 10.9196 13.6541 10.6356 14.0395C10.4422 14.302 10.2666 14.4 10.0309 14.4011C9.76175 14.4083 9.56341 14.3062 9.36143 14.0354Z" fill="#5D5FEF"/>
<path d="M17.3615 14.0354C17.0753 13.6517 16.5323 13.5727 16.1486 13.8588C15.765 14.145 15.6859 14.688 15.9721 15.0717C16.5022 15.7825 17.2287 16.1564 18.0573 16.1342C18.8488 16.1311 19.5261 15.7532 20.0312 15.0676C20.3151 14.6823 20.2329 14.1397 19.8475 13.8558C19.4622 13.5719 18.9196 13.6541 18.6357 14.0395C18.4423 14.302 18.2667 14.4 18.031 14.4011C17.7618 14.4083 17.5635 14.3062 17.3615 14.0354Z" fill="#5D5FEF"/>
<path d="M7.05942 11.246C6.60533 11.0946 6.35993 10.6038 6.51129 10.1497C6.66265 9.69563 7.15346 9.45022 7.60755 9.60158L11.4023 10.8665C11.8564 11.0179 12.1018 11.5087 11.9504 11.9627C11.799 12.4168 11.3082 12.6622 10.8542 12.5109L7.05942 11.246Z" fill="#5D5FEF"/>
<path d="M16.3926 10.935C15.9386 11.0864 15.6932 11.5772 15.8445 12.0313C15.9959 12.4853 16.4867 12.7307 16.9408 12.5794L20.9408 11.246C21.3949 11.0947 21.6403 10.6039 21.4889 10.1498C21.3375 9.69571 20.8467 9.4503 20.3926 9.60166L16.3926 10.935Z" fill="#5D5FEF"/>
</svg>
