<svg width="20" height="18" viewBox="0 0 20 18" fill="none" xmlns="http://www.w3.org/2000/svg">
<path d="M15.4999 11.75H13.6666V13.5833H15.4999M15.4999 8.08333H13.6666V9.91667H15.4999M17.3333 15.4167H9.99992V13.5833H11.8333V11.75H9.99992V9.91667H11.8333V8.08333H9.99992V6.25H17.3333M8.16659 4.41667H6.33325V2.58333H8.16659M8.16659 8.08333H6.33325V6.25H8.16659M8.16659 11.75H6.33325V9.91667H8.16659M8.16659 15.4167H6.33325V13.5833H8.16659M4.49992 4.41667H2.66659V2.58333H4.49992M4.49992 8.08333H2.66659V6.25H4.49992M4.49992 11.75H2.66659V9.91667H4.49992M4.49992 15.4167H2.66659V13.5833H4.49992M9.99992 4.41667V0.75H0.833252V17.25H19.1666V4.41667H9.99992Z" fill="white"/>
</svg>
