<svg width="18" height="18" viewBox="0 0 18 18" fill="none" xmlns="http://www.w3.org/2000/svg">
<path d="M1.66667 0.75H16.3333C16.5764 0.75 16.8096 0.846577 16.9815 1.01849C17.1534 1.19039 17.25 1.42355 17.25 1.66667V3.1205C17.2499 3.3636 17.1533 3.59671 16.9814 3.76858L11.1019 9.64808C10.93 9.81995 10.8334 10.0531 10.8333 10.2962V16.0757C10.8333 16.215 10.8015 16.3524 10.7405 16.4775C10.6794 16.6027 10.5906 16.7122 10.4809 16.7979C10.3712 16.8836 10.2433 16.9432 10.1071 16.9722C9.97094 17.0011 9.82994 16.9986 9.69483 16.9649L7.8615 16.5066C7.6631 16.4571 7.48695 16.3427 7.36105 16.1816C7.23514 16.0205 7.16672 15.8219 7.16667 15.6174V10.2962C7.16662 10.0531 7.07 9.81995 6.89808 9.64808L1.01858 3.76858C0.846663 3.59671 0.750052 3.3636 0.75 3.1205V1.66667C0.75 1.42355 0.846577 1.19039 1.01849 1.01849C1.19039 0.846577 1.42355 0.75 1.66667 0.75Z" fill="#5D5FEF" stroke="#5D5FEF" stroke-width="1.375" stroke-linecap="round" stroke-linejoin="round"/>
</svg>
