<svg width="69" height="69" viewBox="0 0 69 69" fill="none" xmlns="http://www.w3.org/2000/svg">
<path d="M49.5469 18.8299C49.5537 18.8525 49.5094 18.8585 49.4871 18.8575C49.4648 18.8565 49.4591 18.8174 49.457 18.7977C49.4898 18.7689 49.5182 18.7787 49.5469 18.8299Z" fill="#064FAA"/>
<path d="M49.4077 18.8699C49.3605 18.9046 49.279 18.9381 49.1626 18.9719C49.2096 18.9376 49.2915 18.9031 49.4077 18.8699Z" fill="#064FAA"/>
<path d="M48.8193 18.7358C48.8154 18.7191 48.8387 18.6935 48.8891 18.6586C48.8931 18.6752 48.8698 18.701 48.8193 18.7358Z" fill="#064FAA"/>
<path d="M44.0526 12.952C44.3558 13.2 44.6792 13.408 44.8451 13.7046C45.1408 14.2331 45.3719 14.8044 45.5707 15.3784C45.7001 15.7519 45.8373 15.8241 46.2383 15.7371C46.8125 15.6125 47.4168 15.6089 48.009 15.5989C48.1548 15.5965 48.4062 15.7522 48.4253 15.8661C48.4499 16.0129 48.333 16.271 48.2018 16.3424C47.2274 16.8727 46.243 17.3864 45.2439 17.8682C44.6943 18.1333 44.1092 18.3242 43.5441 18.558C43.5098 18.5722 43.5101 18.6703 43.5269 18.7738C43.5595 18.8181 43.5651 18.8573 43.5596 18.8614C43.5541 18.8655 43.542 18.8719 43.5078 18.8707C43.3918 18.9039 43.31 18.9384 43.1956 18.9876C43.0673 19.0075 42.9717 19.0127 42.876 19.0179C42.8833 18.9286 42.8905 18.8392 42.9203 18.7366C42.9708 18.7019 42.994 18.676 43.0412 18.6271C43.0884 18.4997 43.1621 18.3502 43.1168 18.2886C42.5291 17.4901 41.9371 16.694 41.3195 15.9187C40.9215 15.419 40.4794 14.9545 40.0571 14.4742C40.7883 14.062 41.5196 13.65 42.2505 13.2373C42.3696 13.1701 42.487 13.0999 42.5895 12.9915C43.0498 12.952 43.5258 12.952 44.0526 12.952Z" fill="#0251AB"/>
<path d="M49.1047 49.7618C49.1105 50.3069 49.0924 50.854 49.137 51.3959C49.1501 51.5557 49.308 51.7763 49.4553 51.8404C50.305 52.2104 51.1687 52.5491 52.0334 52.8836C52.5632 53.0886 52.8442 53.5271 53.0144 54.0085C53.2119 54.5668 52.7506 55.1475 52.1116 55.317C50.6834 55.6959 49.2612 56.0975 47.8374 56.4929C47.8092 56.5008 47.7914 56.5464 47.7911 56.6148C47.5903 56.6552 47.3673 56.6552 47.0964 56.6552C46.3888 54.0391 45.4583 51.5724 43.6776 49.4595C42.4588 48.0133 40.8967 47.0537 39.3986 45.9895C39.1104 45.7847 38.7336 45.7051 38.3776 45.5596C38.7329 44.7242 39.0569 43.9622 39.381 43.2002C39.3149 43.1602 39.2488 43.1203 39.1827 43.0803C38.6652 43.7173 38.1478 44.3543 37.5929 44.9682C37.4326 44.6947 37.3655 44.3859 37.1765 44.2046C36.5622 43.6151 35.8959 43.079 35.548 42.2663C35.5205 42.2019 35.4606 42.151 35.4144 42.095C34.6988 41.2281 33.9664 40.3743 33.2763 39.4875C33.0444 39.1894 32.8145 38.988 32.4307 39.0044C32.8464 38.0969 33.2622 37.1893 33.6786 36.2821C33.6859 36.2663 33.7045 36.256 33.7139 36.2408C34.2408 35.3867 34.1984 35.236 33.3103 34.8031C33.1347 34.7176 32.9593 34.6315 32.7118 34.5105C33.2246 33.6033 33.7227 32.7221 34.2867 31.8301C34.5206 31.9495 34.7217 32.0529 34.8517 32.2139C37.3254 35.2795 39.8075 38.3386 42.2523 41.4273C44.056 43.7061 45.7928 46.0381 47.5959 48.3174C48.0239 48.8584 48.5979 49.2834 49.1047 49.7618Z" fill="#0278CF"/>
<path d="M31.9719 48.3331C30.7461 48.8305 29.4662 49.0913 28.1524 48.9803C26.0568 48.8032 24.2883 47.9598 23.1395 46.1172C22.7061 45.422 22.182 45.1085 21.3558 45.1304C20.6821 45.1483 19.999 45.0287 19.33 44.9125C18.9992 44.855 18.7933 44.6839 18.9424 44.2219C19.2153 43.3769 19.73 42.7483 20.4776 42.3512C21.4519 41.8336 22.4666 41.3883 23.485 40.9625C23.6373 40.8989 23.9549 41.0603 24.1061 41.2093C24.3005 41.4009 24.403 41.6858 24.5471 41.9293C25.0375 42.7578 25.7781 43.1721 26.725 43.1924C27.1347 43.2011 27.5461 43.1274 28.0021 43.1225C28.0949 43.2685 28.1215 43.3986 28.193 43.4955C29.3407 45.0505 30.4921 46.6028 31.6515 48.149C31.7195 48.2396 31.8634 48.2731 31.9719 48.3331Z" fill="#579AFC"/>
<path d="M32.397 39.0255C32.8148 38.9878 33.0447 39.1893 33.2766 39.4873C33.9667 40.3741 34.6991 41.2279 35.4147 42.0948C35.4609 42.1508 35.5208 42.2017 35.5483 42.2661C35.8962 43.0788 36.5625 43.6149 37.1768 44.2044C37.3658 44.3858 37.4329 44.6945 37.5629 44.9854C37.0048 45.5059 36.4453 45.9931 35.872 46.4631C35.598 46.6877 35.2976 46.88 34.9575 47.0614C34.4666 46.3609 34.0782 45.645 33.5772 45.0197C32.6657 43.882 31.686 42.7992 30.7406 41.6885C30.6889 41.6278 30.6906 41.5213 30.6675 41.4361C31.2327 40.6397 31.7979 39.8433 32.397 39.0255Z" fill="#1885F0"/>
<path d="M30.6328 41.4535C30.6902 41.5214 30.6884 41.6278 30.7402 41.6886C31.6855 42.7993 32.6652 43.8821 33.5767 45.0198C34.0777 45.6451 34.4661 46.3609 34.9219 47.0698C33.9759 47.5099 33.0134 47.9162 32.0109 48.3278C31.8625 48.273 31.7186 48.2396 31.6506 48.149C30.4912 46.6028 29.3398 45.0505 28.1921 43.4955C28.1206 43.3986 28.094 43.2684 28.0474 43.1132C28.8983 42.5387 29.7485 42.0048 30.6328 41.4535Z" fill="#3D91FD"/>
<path d="M29.4712 29.7274C29.423 29.8612 29.3818 29.9979 29.3256 30.1282C28.9719 30.9475 29.0403 31.2676 29.7381 31.8321C30.5203 32.4649 30.951 33.2563 30.7561 34.2716C30.6641 34.7509 30.4244 35.2011 30.261 35.6678C30.2263 35.7668 30.2325 35.8802 30.182 36.007C29.9147 35.4207 29.5163 34.9509 29.0376 34.5174C28.7532 34.2598 28.5546 33.8983 28.3507 33.5632C28.2203 33.349 28.1948 33.0641 28.0464 32.8687C27.3559 31.9596 26.618 31.0861 25.9419 30.1668C25.6688 29.7955 25.3902 29.5535 24.9175 29.6032C25.1979 28.5651 25.7044 27.6486 26.454 26.8132C26.5786 26.8431 26.6658 26.8823 26.721 26.9482C27.3551 27.7052 27.9644 28.4843 28.6263 29.2157C28.8381 29.4497 29.1857 29.5603 29.4712 29.7274Z" fill="#027EDD"/>
<path d="M24.9043 29.6461C25.3903 29.5536 25.6689 29.7956 25.942 30.1669C26.6181 31.0862 27.3561 31.9596 28.0465 32.8688C28.1949 33.0642 28.2205 33.3491 28.3508 33.5633C28.5547 33.8984 28.7533 34.2598 29.0378 34.5174C29.5164 34.9509 29.9149 35.4208 30.1726 36.0512C30.2304 36.746 30.2083 37.3967 29.4691 37.7971C29.1478 37.5984 28.8653 37.4286 28.6489 37.1968C27.1553 35.5968 26.1854 33.5398 24.3428 32.2432C24.5255 31.3918 24.7082 30.5404 24.9043 29.6461Z" fill="#1884F0"/>
<path d="M31.7136 23.3916C32.3736 24.101 33.0217 24.7801 33.5932 25.5185C33.8764 25.8844 34.0189 26.3596 34.2417 26.8223C33.2336 27.2676 32.2087 27.6759 31.1366 28.0514C30.9498 27.7681 30.8433 27.4908 30.6652 27.272C29.9833 26.4346 29.2784 25.616 28.582 24.7903C29.4754 24.3559 30.3674 23.9185 31.2639 23.4906C31.3878 23.4314 31.5342 23.4195 31.7136 23.3916Z" fill="#026CAF"/>
<path d="M24.3353 32.2898C26.1857 33.5398 27.1556 35.5968 28.6492 37.1968C28.8656 37.4286 29.1481 37.5984 29.4351 37.8127C29.0837 38.4106 28.4817 38.3293 27.9505 38.2321C25.9577 37.8672 24.6269 36.2799 24.3524 34.4056C24.2534 33.7292 24.3307 33.0269 24.3353 32.2898Z" fill="#368DFA"/>
<path d="M28.5475 24.8047C29.2785 25.6159 29.9834 26.4345 30.6653 27.272C30.8435 27.4907 30.9499 27.7681 31.097 28.0579C30.5824 28.631 30.0602 29.1646 29.5049 29.7128C29.1864 29.5603 28.8388 29.4497 28.6271 29.2157C27.9651 28.4843 27.3558 27.7052 26.7218 26.9482C26.6665 26.8823 26.5794 26.8431 26.4741 26.7794C27.1317 26.1178 27.8223 25.4684 28.5475 24.8047Z" fill="#0374C4"/>
<path d="M28.5618 24.7688C29.2954 25.5521 29.9997 26.3342 30.6808 27.1361C30.8895 27.3818 31.0344 27.682 31.2212 27.9933C30.7373 28.5329 30.2407 29.0365 29.7106 29.5538C29.2643 29.6391 28.9455 29.4959 28.6792 29.1728C28.0718 28.4359 27.4472 27.7133 26.8386 26.9775C26.7498 26.8702 26.71 26.7224 26.6416 26.5552C27.265 25.9365 27.8943 25.3558 28.5618 24.7688Z" fill="#2F59F2"/>
<path d="M32.0252 23.2361C32.4674 23.7783 32.8671 24.3171 33.2771 24.8478C33.5627 25.2174 33.889 25.5585 34.1454 25.9466C34.283 26.1548 34.3114 26.4353 34.3895 26.727C33.4008 27.1648 32.4117 27.5589 31.3742 27.9296C31.1516 27.631 31.0067 27.3309 30.798 27.0851C30.1169 26.2832 29.4126 25.5012 28.7173 24.7115C29.5554 23.9336 30.6042 23.5991 31.671 23.3028C31.7752 23.2738 31.8817 23.2535 32.0252 23.2361Z" fill="#1352E6"/>
<path d="M62.6758 26.6881C62.5031 26.9593 62.3673 27.2301 62.1501 27.3891C61.6676 27.7422 61.4244 28.1508 61.4248 28.7784C61.4253 29.493 60.9282 29.9239 60.2988 30.1603C59.7503 30.3663 59.1789 30.5113 58.5665 30.6495C58.4043 30.4316 58.3054 30.2386 58.18 30.0647C57.5872 29.2424 56.9276 28.4608 56.4144 27.5919C56.1483 27.1415 55.9307 26.8713 55.393 26.9533C55.0939 26.999 54.8874 26.8829 54.9214 26.535C54.9704 26.0347 54.8504 25.6389 54.3317 25.4398C54.2533 25.4097 54.2126 25.2731 54.1611 25.1821C54.0118 24.9182 53.8952 24.6302 53.7137 24.3913C52.7707 23.1503 51.8144 21.9195 50.857 20.6896C50.2895 19.9605 49.7115 19.2395 49.1382 18.5149C49.0957 18.541 49.0531 18.567 49.0106 18.5931C49.0106 19.4107 49.0106 20.2284 49.0106 21.046C48.9877 20.1261 48.9122 19.2034 48.962 18.2875C48.9912 17.749 49.8323 17.3017 50.5436 17.2062C52.1248 16.9937 53.6982 16.7242 55.2767 16.4906C56.4295 16.32 57.5846 16.1644 58.7401 16.0131C59.1504 15.9593 59.5649 15.9366 59.9776 15.9016C61.1197 15.8048 61.5897 16.7061 61.6895 17.5304C61.8778 19.0844 62.0571 20.6396 62.2299 22.1954C62.3174 22.9836 62.3789 23.7747 62.4621 24.5634C62.4741 24.6768 62.5423 24.7843 62.6302 24.8864C62.6758 25.4645 62.6758 26.0507 62.6758 26.6881Z" fill="#0155A0"/>
<path d="M50.556 55.7458C49.738 56.0002 48.9192 56.252 48.1031 56.5122C48.0101 56.5418 47.932 56.6179 47.8867 56.7037C47.6674 56.735 47.4084 56.735 47.1009 56.735C46.7665 55.7756 46.5214 54.8016 46.1849 53.8605C45.7194 52.5586 45.0805 51.3446 44.2401 50.2316C43.1511 48.7893 41.8243 47.6238 40.3095 46.6644C39.7002 46.2786 39.0608 45.9405 38.4295 45.5775C38.7521 44.7979 39.0694 44.0307 39.3868 43.2635C39.3306 43.2313 39.2744 43.1991 39.2181 43.1669C38.6904 43.8031 38.1627 44.4392 37.5967 45.0516C37.4479 44.7904 37.3869 44.507 37.2178 44.3238C36.6197 43.6757 35.8529 43.1742 35.5186 42.302C35.5001 42.2539 35.4498 42.2182 35.4151 42.1761C34.6995 41.3072 33.9656 40.4526 33.2789 39.5615C33.0455 39.2587 32.8127 39.0692 32.4316 39.0843C32.9157 38.0488 33.3997 37.0133 33.9167 35.9911C34.1793 36.1286 34.472 36.1997 34.6279 36.3859C35.3978 37.3047 36.1423 38.2454 36.8749 39.1947C37.6563 40.2073 38.3124 41.3181 39.3118 42.1561C39.6842 42.4683 39.9807 42.8702 40.3211 43.2222C40.6355 43.5473 40.9965 43.8328 41.2765 44.1841C41.8993 44.9653 42.4694 45.7887 43.088 46.5735C44.3927 48.2288 45.727 49.8607 47.0259 51.5205C48.0765 52.863 49.0888 54.2356 50.1332 55.5831C50.2124 55.6853 50.4123 55.6938 50.556 55.7458Z" fill="#2C77E7"/>
<path d="M40.0207 14.4847C40.4787 14.9483 40.9207 15.4128 41.3188 15.9125C41.9364 16.6878 42.5283 17.4839 43.116 18.2824C43.1613 18.344 43.0877 18.4935 43.0181 18.6345C42.9389 18.6881 42.9157 18.7138 42.8971 18.7437C42.8898 18.833 42.8825 18.9223 42.8752 19.0117C42.9709 19.0065 43.0665 19.0013 43.2297 18.9812C43.3786 18.9327 43.4599 18.8992 43.5413 18.8657C43.5413 18.8657 43.5533 18.8593 43.5811 18.8562C43.6089 18.8531 43.6531 18.8471 43.6531 18.8471C43.675 18.8535 43.697 18.8599 43.7698 18.9062C44.2445 19.5414 44.6683 20.1368 45.0921 20.7322C44.7022 21.5363 44.1128 22.1 43.2335 22.35C41.6525 22.7995 40.3801 21.889 39.7317 20.2516C39.3371 19.2552 38.9635 18.2472 38.6467 17.2239C38.2606 15.9768 38.7853 14.9674 40.0207 14.4847Z" fill="#0151B7"/>
<path d="M45.1247 20.711C44.6687 20.1367 44.2449 19.5413 43.8027 18.9167C44.4449 18.6942 45.1054 18.5007 45.8336 18.2875C45.8516 19.1967 45.6209 19.974 45.1247 20.711Z" fill="#064FAA"/>
<path d="M54.5299 33.1997C54.2372 33.0776 53.9167 33.0142 53.7465 32.8192C53.0713 32.045 52.4364 31.2349 51.802 30.4259C51.6485 30.23 51.5544 29.9875 51.4263 29.7278C51.4692 29.614 51.5187 29.539 51.6119 29.3974C50.5811 29.4094 50.0513 28.8328 49.8261 27.9198C49.762 27.6601 49.7145 27.3945 49.6831 27.1288C49.4942 25.528 49.3106 23.9266 49.1289 22.325C49.0844 21.9328 49.0538 21.5391 49.0136 21.0961C49.0103 20.2285 49.0103 19.4108 49.0103 18.5932C49.0528 18.5671 49.0954 18.5411 49.1379 18.515C49.7112 19.2396 50.2892 19.9606 50.8567 20.6897C51.814 21.9196 52.7704 23.1504 53.7134 24.3914C53.8948 24.6302 54.0115 24.9183 54.1608 25.1822C54.2123 25.2732 54.253 25.4098 54.3314 25.4399C54.85 25.639 54.9701 26.0348 54.9211 26.5351C54.8871 26.883 55.0936 26.9991 55.3927 26.9534C55.9304 26.8714 56.148 27.1416 56.4141 27.592C56.9273 28.4609 57.5869 29.2425 58.1797 30.0648C58.3051 30.2387 58.404 30.4317 58.5223 30.6549C57.4344 31.8846 56.0632 32.637 54.5299 33.1997Z" fill="#0051AC"/>
<path d="M54.6712 33.1212C52.4792 34.215 50.2399 34.4643 47.914 33.5527C46.1694 32.8689 45.0739 31.4683 43.9716 30.0659C43.7727 29.8129 43.5726 29.5609 43.3203 29.262C43.044 28.9592 42.8136 28.7082 42.598 28.4451C41.5632 27.1827 40.5132 25.9321 39.5101 24.6448C39.1204 24.1447 38.84 23.5591 38.5503 23.0139C39.5031 22.9795 40.4155 22.9436 41.3279 22.9077C42.048 22.9537 42.771 23.062 43.4874 23.0281C44.2075 22.9941 44.8355 23.2447 45.4524 23.5082C46.3689 23.8999 46.7398 24.714 46.7839 25.6604C46.8035 26.0786 46.6677 26.503 46.6124 26.9259C46.5466 27.429 46.5122 27.8734 46.9478 28.3163C47.6521 29.0324 48.3621 29.6758 49.383 29.8687C50.1218 30.0083 50.8431 30.005 51.5722 29.6658C51.737 29.9072 51.8311 30.1498 51.9846 30.3456C52.619 31.1546 53.2539 31.9648 53.9292 32.7389C54.0993 32.934 54.4198 32.9973 54.6712 33.1212Z" fill="#024BBF"/>
<path d="M49.1125 49.715C48.5981 49.2834 48.0241 48.8584 47.5961 48.3174C45.793 46.038 44.0562 43.7061 42.2525 41.4273C39.8077 38.3386 37.3256 35.2795 34.8519 32.2139C34.7219 32.0528 34.5207 31.9495 34.3174 31.8063C34.7201 30.8383 35.1566 29.8826 35.6005 28.9304C35.6257 28.8763 35.7117 28.8508 35.8176 28.8043C36.4196 29.3548 37.0222 29.8728 37.5182 30.4785C39.0215 32.3141 40.4796 34.1867 41.9696 36.0333C42.0782 36.168 42.3012 36.2101 42.471 36.2952C41.9647 37.2231 42.5229 37.6271 43.2174 38.145C45.0629 39.5212 46.5365 41.2512 47.5013 43.3644C47.969 44.3889 48.3916 45.4395 48.7487 46.5072C48.934 47.0613 48.9436 47.677 49.0112 48.2672C49.0645 48.7323 49.085 49.2011 49.1125 49.715Z" fill="#026CAF"/>
<path d="M50.6005 55.792C50.4131 55.7398 50.2132 55.7313 50.134 55.6291C49.0896 54.2816 48.0773 52.909 47.0267 51.5665C45.7278 49.9067 44.3935 48.2748 43.0888 46.6195C42.4702 45.8347 41.9001 45.0113 41.2773 44.2301C40.9973 43.8788 40.6363 43.5933 40.3219 43.2682C39.9815 42.9162 39.685 42.5143 39.3126 42.2021C38.3132 41.3641 37.6571 40.2533 36.8757 39.2406C36.1431 38.2914 35.3986 37.3507 34.6287 36.4319C34.4728 36.2457 34.1801 36.1746 33.9496 36.0158C34.3219 34.8734 33.1546 35.1065 32.7593 34.5952C33.2719 33.6664 33.7979 32.7134 34.3638 31.7751C34.66 32.0699 34.9346 32.3352 35.1692 32.6324C37.1058 35.0849 39.0289 37.5482 40.9681 39.9986C42.6812 42.1634 44.409 44.3163 46.1314 46.4736C46.9022 47.439 47.6629 48.4131 48.4598 49.3565C48.6021 49.525 48.899 49.5625 49.1245 49.6604C49.1556 50.232 49.2121 50.8037 49.2081 51.375C49.2057 51.7125 49.3007 51.8977 49.6273 52.0178C50.3522 52.2845 51.0676 52.5787 51.7786 52.8812C52.4074 53.1488 52.978 53.4938 53.0458 54.2725C53.0965 54.8539 52.7051 55.3157 52.0974 55.4492C51.6114 55.556 51.1285 55.6772 50.6005 55.792Z" fill="#325FFF"/>
<path d="M49.0181 49.5115C48.7927 49.4635 48.4958 49.426 48.3535 49.2575C47.5566 48.3141 46.7959 47.34 46.0251 46.3746C44.3027 44.2173 42.5748 42.0644 40.8618 39.8997C38.9226 37.4492 36.9995 34.986 35.0629 32.5334C34.8283 32.2363 34.5537 31.9709 34.2891 31.6558C34.7338 30.682 35.1871 29.7432 35.6988 28.8193C36.038 29.0297 36.3834 29.1729 36.5895 29.4288C38.2293 31.4652 39.8346 33.5294 41.4722 35.5676C41.7323 35.8913 42.101 36.1275 42.4195 36.4042C42.3282 36.7112 42.2369 37.0182 42.1314 37.3727C46.2568 40.3314 48.8171 44.2253 49.0181 49.5115Z" fill="#1352E6"/>
<path d="M42.6019 36.3366C42.2644 36.2634 41.8144 35.9851 41.5543 35.6613C39.9167 33.6232 38.3323 31.5672 36.6925 29.5308C36.4865 29.2749 36.0129 29.0421 35.7092 28.8193C36.1264 27.7972 36.7495 26.7535 37.1894 25.7588C36.408 26.5476 35.4084 26.7014 34.3658 26.8112C34.2428 26.514 34.2144 26.2335 34.0768 26.0253C33.8204 25.6372 33.4941 25.2961 33.2085 24.9265C32.7984 24.3958 32.3987 23.857 31.9946 23.3217C32.5533 23.2264 33.1119 23.131 33.7394 23.026C33.8353 23.0025 33.8571 22.9829 33.8738 22.9575C33.8738 22.9575 33.9205 22.942 33.9986 22.9399C35.2477 22.9262 36.4187 22.9081 37.5897 22.9077C37.8531 22.9076 38.2865 22.9926 38.5498 23.026C38.88 23.5726 39.0888 24.0497 39.4785 24.5498C40.4816 25.8371 41.5028 27.1189 42.5376 28.3814C42.7532 28.6445 43.0062 28.8589 43.2477 29.1477C43.5552 29.9286 43.6861 30.8038 44.0612 31.5066C44.4204 32.1794 44.1634 32.7195 43.9215 33.294C43.4975 34.3011 43.0588 35.3021 42.6019 36.3366Z" fill="#0248D2"/>
<path d="M13.9146 23.5512C12.8219 23.5493 11.784 23.5478 10.746 23.5457C10.3162 23.5448 9.96074 23.5019 9.96192 22.9112C9.96307 22.3307 10.3148 22.2582 10.7427 22.2578C14.421 22.2545 18.0993 22.2548 21.7775 22.2632C21.986 22.2637 22.1942 22.3443 22.3953 22.3861C22.3986 23.2767 22.1525 23.5526 21.3441 23.5538C18.8858 23.5575 16.4276 23.5528 13.9146 23.5512Z" fill="#0772C0"/>
<path d="M10.9941 34.733C10.4842 34.9298 10.1672 34.6409 9.9615 34.3079C9.85556 34.1363 9.94139 33.6207 9.99512 33.6124C10.3813 33.5525 10.7924 33.5339 11.1696 33.6184C11.2663 33.6401 11.3104 34.0791 11.3002 34.3231C11.2947 34.4555 11.1241 34.5809 10.9941 34.733Z" fill="#5E99F3"/>
<path d="M7.41789 31.2451C7.28776 31.5038 7.20271 31.776 7.01764 31.9163C6.70661 32.1519 6.38286 32.057 6.22399 31.6897C6.01716 31.2116 6.16374 30.8645 6.57528 30.7446C7.10457 30.5903 7.34833 30.7219 7.41789 31.2451Z" fill="#3B8DF6"/>
<path d="M5.47412 25.7995C5.70181 25.7134 5.93594 25.6263 6.15529 25.6544C6.35964 25.6806 6.69294 25.805 6.71395 25.9294C6.75879 26.1948 6.70193 26.5284 6.55955 26.7537C6.48407 26.8732 6.14114 26.8514 5.92131 26.8414C5.79116 26.8354 5.66562 26.7281 5.50606 26.7009C5.47412 26.4399 5.47412 26.1443 5.47412 25.7995Z" fill="#077CD8"/>
<path d="M7.74283 23.4951C7.4132 23.5261 7.00732 23.6431 6.83845 23.4932C6.66561 23.3398 6.72501 22.9247 6.67822 22.592C7.32412 22.5677 7.80924 22.5686 8.28516 23.1125C8.09771 23.2406 7.93417 23.3523 7.74283 23.4951Z" fill="#0772C0"/>
<path d="M19.0227 26.5454C15.4679 26.5462 11.9673 26.5472 8.4667 26.5474C8.33941 26.5474 8.20726 26.5608 8.08572 26.5323C7.68968 26.4394 7.37051 26.1386 7.46139 25.7851C7.5274 25.5283 7.94181 25.1851 8.20489 25.1816C11.5226 25.1374 14.841 25.1426 18.1593 25.1494C18.7917 25.1507 19.4244 25.2077 20.0561 25.2507C20.4402 25.2769 20.7649 25.3695 20.7837 25.8648C20.8036 26.3921 20.4669 26.5071 20.061 26.5378C19.7346 26.5625 19.405 26.5445 19.0227 26.5454Z" fill="#097CD7"/>
<path d="M9.49825 31.7449C9.06942 31.1843 9.15037 30.9079 9.77235 30.7118C9.92417 30.6639 10.0868 30.6253 10.2446 30.6251C13.0719 30.6205 15.8992 30.6184 18.7265 30.6261C19.4552 30.6281 19.5662 30.7601 19.5803 31.3608C19.5903 31.7876 19.4352 31.9321 19.0057 31.9267C17.419 31.9067 15.8319 31.9183 14.245 31.9191C12.8769 31.9198 11.5088 31.928 10.1409 31.9168C9.93612 31.9152 9.73209 31.8259 9.49825 31.7449Z" fill="#3D8DF4"/>
<path d="M16.1797 27.8801C17.0896 27.8826 17.945 27.8729 18.7998 27.8917C19.4558 27.9061 19.6319 28.1133 19.5744 28.7086C19.5244 29.2259 19.1436 29.2808 18.7531 29.2836C17.4977 29.2928 16.2423 29.285 14.9868 29.2843C14.2409 29.2839 13.4947 29.2949 12.749 29.2814C12.1859 29.2712 11.9046 29.0171 11.9179 28.5752C11.9295 28.1904 12.3077 27.8881 12.7954 27.886C13.9052 27.8813 15.0151 27.8817 16.1797 27.8801Z" fill="#2083E8"/>
<path d="M12.4534 34.6744C12.0934 34.6065 11.9012 34.4426 11.9038 34.023C11.9066 33.5781 12.1909 33.4793 12.5043 33.389C12.6569 33.3451 12.8279 33.3575 12.9905 33.3573C14.8089 33.3554 16.6272 33.356 18.4456 33.356C19.1778 33.356 19.4903 33.5449 19.4486 34.0791C19.4033 34.6605 18.9066 34.653 18.3702 34.6634C16.3336 34.6673 14.3935 34.6709 12.4534 34.6744Z" fill="#5B99F6"/>
</svg>
