<svg width="20" height="20" viewBox="0 0 20 20" fill="none" xmlns="http://www.w3.org/2000/svg">
<path d="M3.33325 14.9998C3.33325 14.1158 3.68444 13.2679 4.30956 12.6428C4.93468 12.0177 5.78253 11.6665 6.66659 11.6665H13.3333C14.2173 11.6665 15.0652 12.0177 15.6903 12.6428C16.3154 13.2679 16.6666 14.1158 16.6666 14.9998C16.6666 15.4419 16.491 15.8658 16.1784 16.1783C15.8659 16.4909 15.4419 16.6665 14.9999 16.6665H4.99992C4.55789 16.6665 4.13397 16.4909 3.82141 16.1783C3.50885 15.8658 3.33325 15.4419 3.33325 14.9998Z" stroke="#71839B" stroke-width="2.08333" stroke-linejoin="round"/>
<path d="M10 8.33325C11.3807 8.33325 12.5 7.21396 12.5 5.83325C12.5 4.45254 11.3807 3.33325 10 3.33325C8.61929 3.33325 7.5 4.45254 7.5 5.83325C7.5 7.21396 8.61929 8.33325 10 8.33325Z" stroke="#71839B" stroke-width="2.08333"/>
</svg>
