<svg width="16" height="16" viewBox="0 0 16 16" fill="none" xmlns="http://www.w3.org/2000/svg">
<path d="M1.33325 12.9998C1.33325 12.1158 1.68444 11.2679 2.30956 10.6428C2.93468 10.0177 3.78253 9.6665 4.66659 9.6665H11.3333C12.2173 9.6665 13.0652 10.0177 13.6903 10.6428C14.3154 11.2679 14.6666 12.1158 14.6666 12.9998C14.6666 13.4419 14.491 13.8658 14.1784 14.1783C13.8659 14.4909 13.4419 14.6665 12.9999 14.6665H2.99992C2.55789 14.6665 2.13397 14.4909 1.82141 14.1783C1.50885 13.8658 1.33325 13.4419 1.33325 12.9998Z" stroke="#71839B" stroke-width="2.08333" stroke-linejoin="round"/>
<path d="M8 6.33325C9.38071 6.33325 10.5 5.21396 10.5 3.83325C10.5 2.45254 9.38071 1.33325 8 1.33325C6.61929 1.33325 5.5 2.45254 5.5 3.83325C5.5 5.21396 6.61929 6.33325 8 6.33325Z" stroke="#71839B" stroke-width="2.08333"/>
</svg>
