<svg width="13" height="12" viewBox="0 0 13 12" fill="none" xmlns="http://www.w3.org/2000/svg">
<path d="M3.0376 4H2.0376V9H11.0376V4H10.2876M8.2876 3.5C8.48328 3.61315 8.65086 3.76907 8.77781 3.95609C8.90476 4.14311 8.98781 4.35641 9.02073 4.58004C9.05366 4.80368 9.03561 5.03186 8.96795 5.24753C8.90029 5.46321 8.78476 5.66081 8.62999 5.82556C8.47523 5.99031 8.28523 6.11795 8.07419 6.19894C7.86316 6.27993 7.63655 6.31218 7.4113 6.29328C7.18605 6.27438 6.96798 6.20482 6.7734 6.08979C6.57882 5.97476 6.41274 5.81724 6.2876 5.629M7.0376 3C7.0376 3.39782 6.87956 3.77936 6.59826 4.06066C6.31695 4.34196 5.93542 4.5 5.5376 4.5C5.13977 4.5 4.75824 4.34196 4.47694 4.06066C4.19563 3.77936 4.0376 3.39782 4.0376 3C4.0376 2.60218 4.19563 2.22064 4.47694 1.93934C4.75824 1.65804 5.13977 1.5 5.5376 1.5C5.93542 1.5 6.31695 1.65804 6.59826 1.93934C6.87956 2.22064 7.0376 2.60218 7.0376 3Z" stroke="#5D5FEF" stroke-width="0.666667" stroke-linecap="round" stroke-linejoin="round"/>
</svg>
