<svg width="10" height="10" viewBox="0 0 22 22" fill="none" xmlns="http://www.w3.org/2000/svg">
<g clip-path="url(#clip0_11_2340)">
<path d="M18.3332 16.0417C18.6863 16.0419 19.0258 16.1779 19.2814 16.4216C19.5369 16.6653 19.6889 16.9979 19.7059 17.3506C19.7229 17.7033 19.6035 18.0491 19.3725 18.3161C19.1415 18.5832 18.8166 18.7512 18.4652 18.7853L18.3332 18.7917H3.6665C3.31339 18.7915 2.97388 18.6555 2.71832 18.4118C2.46276 18.1682 2.31074 17.8355 2.29377 17.4828C2.2768 17.1301 2.39618 16.7844 2.62716 16.5173C2.85815 16.2502 3.18304 16.0822 3.5345 16.0481L3.6665 16.0417H18.3332ZM18.3332 9.62504C18.6978 9.62504 19.0476 9.76991 19.3054 10.0278C19.5633 10.2856 19.7082 10.6354 19.7082 11C19.7082 11.3647 19.5633 11.7144 19.3054 11.9723C19.0476 12.2302 18.6978 12.375 18.3332 12.375H3.6665C3.30183 12.375 2.95209 12.2302 2.69423 11.9723C2.43637 11.7144 2.2915 11.3647 2.2915 11C2.2915 10.6354 2.43637 10.2856 2.69423 10.0278C2.95209 9.76991 3.30183 9.62504 3.6665 9.62504H18.3332ZM18.3332 3.20837C18.6978 3.20837 19.0476 3.35324 19.3054 3.6111C19.5633 3.86896 19.7082 4.2187 19.7082 4.58337C19.7082 4.94805 19.5633 5.29778 19.3054 5.55565C19.0476 5.81351 18.6978 5.95837 18.3332 5.95837H3.6665C3.30183 5.95837 2.95209 5.81351 2.69423 5.55565C2.43637 5.29778 2.2915 4.94805 2.2915 4.58337C2.2915 4.2187 2.43637 3.86896 2.69423 3.6111C2.95209 3.35324 3.30183 3.20837 3.6665 3.20837H18.3332Z" fill="white"/>
</g>
<defs>
<clipPath id="clip0_11_2340">
<rect width="22" height="22" fill="white"/>
</clipPath>
</defs>
</svg>
