<svg width="12" height="12" viewBox="0 0 12 12" fill="none" xmlns="http://www.w3.org/2000/svg">
<path d="M11.25 4.40625C11.25 7.6875 6.38484 10.3434 6.17766 10.4531C6.12305 10.4825 6.06201 10.4979 6 10.4979C5.93799 10.4979 5.87695 10.4825 5.82234 10.4531C5.61516 10.3434 0.75 7.6875 0.75 4.40625C0.750868 3.63573 1.05734 2.89702 1.60218 2.35218C2.14702 1.80734 2.88573 1.50087 3.65625 1.5C4.62422 1.5 5.47172 1.91625 6 2.61984C6.52828 1.91625 7.37578 1.5 8.34375 1.5C9.11427 1.50087 9.85298 1.80734 10.3978 2.35218C10.9427 2.89702 11.2491 3.63573 11.25 4.40625Z" fill="#595959"/>
</svg>
