<svg width="22" height="22" viewBox="0 0 22 22" fill="none" xmlns="http://www.w3.org/2000/svg">
<path d="M15.5833 1.83337V3.66671H18.3398C18.8421 3.66671 19.25 4.07462 19.25 4.57696V19.2565C19.2498 19.4978 19.1538 19.7292 18.9831 19.8998C18.8125 20.0705 18.5811 20.1665 18.3398 20.1667H3.66025C3.41884 20.1667 3.18731 20.0708 3.01661 19.9001C2.8459 19.7294 2.75 19.4979 2.75 19.2565V4.57696C2.75 4.07462 3.15792 3.66671 3.66025 3.66671H6.41667V1.83337H15.5833ZM6.41667 5.50004H4.58333V18.3334H17.4167V5.50004H15.5833V7.33337H6.41667V5.50004ZM8.25 14.6667V16.5H6.41667V14.6667H8.25ZM8.25 11.9167V13.75H6.41667V11.9167H8.25ZM8.25 9.16671V11H6.41667V9.16671H8.25ZM13.75 3.66671H8.25V5.50004H13.75V3.66671Z" fill="white"/>
</svg>
