<svg width="20" height="20" viewBox="0 0 20 20" fill="none" xmlns="http://www.w3.org/2000/svg">
<path d="M4.99992 9.16675C4.8351 9.16675 4.67398 9.21562 4.53694 9.30719C4.3999 9.39876 4.29309 9.52891 4.23002 9.68118C4.16695 9.83345 4.15044 10.001 4.1826 10.1627C4.21475 10.3243 4.29412 10.4728 4.41066 10.5893C4.52721 10.7059 4.67569 10.7852 4.83734 10.8174C4.99899 10.8496 5.16655 10.8331 5.31882 10.77C5.47109 10.7069 5.60124 10.6001 5.69281 10.4631C5.78438 10.326 5.83325 10.1649 5.83325 10.0001C5.83325 9.77907 5.74545 9.56711 5.58917 9.41083C5.43289 9.25455 5.22093 9.16675 4.99992 9.16675ZM14.9999 9.16675C14.8351 9.16675 14.674 9.21562 14.5369 9.30719C14.3999 9.39876 14.2931 9.52891 14.23 9.68118C14.1669 9.83345 14.1504 10.001 14.1826 10.1627C14.2148 10.3243 14.2941 10.4728 14.4107 10.5893C14.5272 10.7059 14.6757 10.7852 14.8373 10.8174C14.999 10.8496 15.1665 10.8331 15.3188 10.77C15.4711 10.7069 15.6012 10.6001 15.6928 10.4631C15.7844 10.326 15.8333 10.1649 15.8333 10.0001C15.8333 9.77907 15.7455 9.56711 15.5892 9.41083C15.4329 9.25455 15.2209 9.16675 14.9999 9.16675ZM16.6666 4.16675H3.33325C2.67021 4.16675 2.03433 4.43014 1.56548 4.89898C1.09664 5.36782 0.833252 6.00371 0.833252 6.66675V13.3334C0.833252 13.9965 1.09664 14.6323 1.56548 15.1012C2.03433 15.57 2.67021 15.8334 3.33325 15.8334H16.6666C17.3296 15.8334 17.9655 15.57 18.4344 15.1012C18.9032 14.6323 19.1666 13.9965 19.1666 13.3334V6.66675C19.1666 6.00371 18.9032 5.36782 18.4344 4.89898C17.9655 4.43014 17.3296 4.16675 16.6666 4.16675ZM17.4999 13.3334C17.4999 13.5544 17.4121 13.7664 17.2558 13.9227C17.0996 14.079 16.8876 14.1667 16.6666 14.1667H3.33325C3.11224 14.1667 2.90028 14.079 2.744 13.9227C2.58772 13.7664 2.49992 13.5544 2.49992 13.3334V6.66675C2.49992 6.44573 2.58772 6.23377 2.744 6.07749C2.90028 5.92121 3.11224 5.83341 3.33325 5.83341H16.6666C16.8876 5.83341 17.0996 5.92121 17.2558 6.07749C17.4121 6.23377 17.4999 6.44573 17.4999 6.66675V13.3334ZM9.99992 7.50008C9.50546 7.50008 9.02211 7.6467 8.61099 7.92141C8.19987 8.19611 7.87944 8.58656 7.69022 9.04337C7.501 9.50019 7.45149 10.0029 7.54795 10.4878C7.64442 10.9728 7.88252 11.4182 8.23215 11.7678C8.58178 12.1175 9.02724 12.3556 9.51219 12.452C9.99714 12.5485 10.4998 12.499 10.9566 12.3098C11.4134 12.1206 11.8039 11.8001 12.0786 11.389C12.3533 10.9779 12.4999 10.4945 12.4999 10.0001C12.4999 9.33704 12.2365 8.70116 11.7677 8.23231C11.2988 7.76347 10.663 7.50008 9.99992 7.50008ZM9.99992 10.8334C9.8351 10.8334 9.67398 10.7845 9.53694 10.693C9.3999 10.6014 9.29309 10.4713 9.23002 10.319C9.16695 10.1667 9.15044 9.99916 9.1826 9.83751C9.21475 9.67586 9.29412 9.52737 9.41066 9.41083C9.52721 9.29428 9.67569 9.21491 9.83734 9.18276C9.99899 9.15061 10.1665 9.16711 10.3188 9.23018C10.4711 9.29325 10.6012 9.40006 10.6928 9.53711C10.7844 9.67415 10.8333 9.83526 10.8333 10.0001C10.8333 10.2211 10.7455 10.4331 10.5892 10.5893C10.4329 10.7456 10.2209 10.8334 9.99992 10.8334Z" fill="#71839B"/>
</svg>
