<svg width="14" height="18" viewBox="0 0 14 18" fill="none" xmlns="http://www.w3.org/2000/svg">
<path d="M11.9999 9.98341V7.33341C11.9987 6.15268 11.5797 5.01047 10.8171 4.10906C10.0545 3.20765 8.99747 2.6052 7.83325 2.40841V1.50008C7.83325 1.27907 7.74545 1.06711 7.58917 0.910826C7.43289 0.754545 7.22093 0.666748 6.99992 0.666748C6.7789 0.666748 6.56694 0.754545 6.41066 0.910826C6.25438 1.06711 6.16659 1.27907 6.16659 1.50008V2.40841C5.00237 2.6052 3.94536 3.20765 3.18274 4.10906C2.42012 5.01047 2.00112 6.15268 1.99992 7.33341V9.98341C1.51363 10.1553 1.09242 10.4735 0.794034 10.8942C0.495651 11.3149 0.334702 11.8176 0.333252 12.3334V14.0001C0.333252 14.2211 0.421049 14.4331 0.57733 14.5893C0.73361 14.7456 0.945572 14.8334 1.16659 14.8334H3.78325C3.97515 15.5396 4.39409 16.1629 4.97542 16.6074C5.55674 17.0518 6.26817 17.2926 6.99992 17.2926C7.73167 17.2926 8.44309 17.0518 9.02442 16.6074C9.60575 16.1629 10.0247 15.5396 10.2166 14.8334H12.8333C13.0543 14.8334 13.2662 14.7456 13.4225 14.5893C13.5788 14.4331 13.6666 14.2211 13.6666 14.0001V12.3334C13.6651 11.8176 13.5042 11.3149 13.2058 10.8942C12.9074 10.4735 12.4862 10.1553 11.9999 9.98341V9.98341ZM3.66659 7.33341C3.66659 6.44936 4.01777 5.60151 4.6429 4.97639C5.26802 4.35127 6.11586 4.00008 6.99992 4.00008C7.88397 4.00008 8.73182 4.35127 9.35694 4.97639C9.98206 5.60151 10.3333 6.44936 10.3333 7.33341V9.83341H3.66659V7.33341ZM6.99992 15.6667C6.70906 15.665 6.42373 15.5872 6.17228 15.441C5.92083 15.2948 5.71201 15.0853 5.56658 14.8334H8.43325C8.28783 15.0853 8.07901 15.2948 7.82756 15.441C7.57611 15.5872 7.29077 15.665 6.99992 15.6667ZM11.9999 13.1667H1.99992V12.3334C1.99992 12.1124 2.08772 11.9004 2.244 11.7442C2.40028 11.5879 2.61224 11.5001 2.83325 11.5001H11.1666C11.3876 11.5001 11.5996 11.5879 11.7558 11.7442C11.9121 11.9004 11.9999 12.1124 11.9999 12.3334V13.1667Z" fill="#71839B"/>
</svg>
