<svg width="20" height="12" viewBox="0 0 20 12" fill="none" xmlns="http://www.w3.org/2000/svg">
<path d="M4.99992 5.16675C4.8351 5.16675 4.67398 5.21562 4.53694 5.30719C4.3999 5.39876 4.29309 5.52891 4.23002 5.68118C4.16695 5.83345 4.15044 6.00101 4.1826 6.16266C4.21475 6.32431 4.29412 6.47279 4.41066 6.58934C4.52721 6.70588 4.67569 6.78525 4.83734 6.8174C4.99899 6.84956 5.16655 6.83305 5.31882 6.76998C5.47109 6.70691 5.60124 6.6001 5.69281 6.46306C5.78438 6.32602 5.83325 6.1649 5.83325 6.00008C5.83325 5.77907 5.74545 5.56711 5.58917 5.41083C5.43289 5.25455 5.22093 5.16675 4.99992 5.16675ZM14.9999 5.16675C14.8351 5.16675 14.674 5.21562 14.5369 5.30719C14.3999 5.39876 14.2931 5.52891 14.23 5.68118C14.1669 5.83345 14.1504 6.00101 14.1826 6.16266C14.2148 6.32431 14.2941 6.47279 14.4107 6.58934C14.5272 6.70588 14.6757 6.78525 14.8373 6.8174C14.999 6.84956 15.1665 6.83305 15.3188 6.76998C15.4711 6.70691 15.6012 6.6001 15.6928 6.46306C15.7844 6.32602 15.8333 6.1649 15.8333 6.00008C15.8333 5.77907 15.7455 5.56711 15.5892 5.41083C15.4329 5.25455 15.2209 5.16675 14.9999 5.16675ZM16.6666 0.166748H3.33325C2.67021 0.166748 2.03433 0.43014 1.56548 0.898981C1.09664 1.36782 0.833252 2.00371 0.833252 2.66675V9.33341C0.833252 9.99646 1.09664 10.6323 1.56548 11.1012C2.03433 11.57 2.67021 11.8334 3.33325 11.8334H16.6666C17.3296 11.8334 17.9655 11.57 18.4344 11.1012C18.9032 10.6323 19.1666 9.99646 19.1666 9.33341V2.66675C19.1666 2.00371 18.9032 1.36782 18.4344 0.898981C17.9655 0.43014 17.3296 0.166748 16.6666 0.166748ZM17.4999 9.33341C17.4999 9.55443 17.4121 9.76639 17.2558 9.92267C17.0996 10.079 16.8876 10.1667 16.6666 10.1667H3.33325C3.11224 10.1667 2.90028 10.079 2.744 9.92267C2.58772 9.76639 2.49992 9.55443 2.49992 9.33341V2.66675C2.49992 2.44573 2.58772 2.23377 2.744 2.07749C2.90028 1.92121 3.11224 1.83341 3.33325 1.83341H16.6666C16.8876 1.83341 17.0996 1.92121 17.2558 2.07749C17.4121 2.23377 17.4999 2.44573 17.4999 2.66675V9.33341ZM9.99992 3.50008C9.50546 3.50008 9.02212 3.6467 8.61099 3.92141C8.19987 4.19611 7.87944 4.58656 7.69022 5.04337C7.501 5.50019 7.45149 6.00285 7.54795 6.48781C7.64442 6.97276 7.88252 7.41822 8.23215 7.76785C8.58178 8.11748 9.02724 8.35558 9.51219 8.45204C9.99714 8.54851 10.4998 8.499 10.9566 8.30978C11.4134 8.12056 11.8039 7.80013 12.0786 7.38901C12.3533 6.97788 12.4999 6.49453 12.4999 6.00008C12.4999 5.33704 12.2365 4.70115 11.7677 4.23231C11.2988 3.76347 10.663 3.50008 9.99992 3.50008ZM9.99992 6.83341C9.8351 6.83341 9.67398 6.78454 9.53694 6.69297C9.3999 6.6014 9.29309 6.47126 9.23002 6.31898C9.16695 6.16671 9.15044 5.99916 9.1826 5.83751C9.21475 5.67586 9.29412 5.52737 9.41066 5.41083C9.52721 5.29428 9.67569 5.21491 9.83734 5.18276C9.99899 5.15061 10.1665 5.16711 10.3188 5.23018C10.4711 5.29325 10.6012 5.40006 10.6928 5.53711C10.7844 5.67415 10.8333 5.83526 10.8333 6.00008C10.8333 6.22109 10.7455 6.43306 10.5892 6.58934C10.4329 6.74562 10.2209 6.83341 9.99992 6.83341Z" fill="#71839B"/>
</svg>
