<svg width="17" height="18" viewBox="0 0 17 18" fill="none" xmlns="http://www.w3.org/2000/svg">
<path d="M15.5833 9.54999C15.4497 9.39792 15.3761 9.20242 15.3761 8.99999C15.3761 8.79757 15.4497 8.60207 15.5833 8.44999L16.65 7.24999C16.7675 7.11888 16.8405 6.95391 16.8585 6.77875C16.8765 6.60359 16.8385 6.42723 16.75 6.27499L15.0833 3.39166C14.9957 3.2396 14.8624 3.11906 14.7023 3.04723C14.5422 2.97541 14.3635 2.95596 14.1917 2.99166L12.625 3.30833C12.4256 3.34952 12.2181 3.31632 12.0416 3.21499C11.865 3.11367 11.7317 2.95123 11.6667 2.75833L11.1583 1.23333C11.1024 1.06781 10.9959 0.924048 10.8539 0.822362C10.7118 0.720676 10.5414 0.66621 10.3667 0.666661H7.03333C6.85161 0.657176 6.67177 0.707433 6.5213 0.809756C6.37082 0.912079 6.25798 1.06084 6.19999 1.23333L5.73333 2.75833C5.66833 2.95123 5.53497 3.11367 5.35842 3.21499C5.18187 3.31632 4.97434 3.34952 4.77499 3.30833L3.16666 2.99166C3.00379 2.96864 2.83774 2.99435 2.68945 3.06553C2.54116 3.13671 2.41725 3.25018 2.33333 3.39166L0.666662 6.27499C0.575962 6.42554 0.53518 6.6009 0.550147 6.77601C0.565114 6.95113 0.635064 7.11703 0.749995 7.24999L1.80833 8.44999C1.94193 8.60207 2.01561 8.79757 2.01561 8.99999C2.01561 9.20242 1.94193 9.39792 1.80833 9.54999L0.749995 10.75C0.635064 10.883 0.565114 11.0489 0.550147 11.224C0.53518 11.3991 0.575962 11.5745 0.666662 11.725L2.33333 14.6083C2.42091 14.7604 2.55426 14.8809 2.71437 14.9528C2.87448 15.0246 3.05318 15.044 3.225 15.0083L4.79166 14.6917C4.99101 14.6505 5.19854 14.6837 5.37509 14.785C5.55164 14.8863 5.685 15.0488 5.74999 15.2417L6.25833 16.7667C6.31631 16.9391 6.42916 17.0879 6.57963 17.1902C6.73011 17.2926 6.90994 17.3428 7.09166 17.3333H10.425C10.5997 17.3338 10.7701 17.2793 10.9122 17.1776C11.0542 17.0759 11.1608 16.9322 11.2167 16.7667L11.725 15.2417C11.79 15.0488 11.9234 14.8863 12.0999 14.785C12.2764 14.6837 12.484 14.6505 12.6833 14.6917L14.25 15.0083C14.4218 15.044 14.6005 15.0246 14.7606 14.9528C14.9207 14.8809 15.0541 14.7604 15.1417 14.6083L16.8083 11.725C16.8968 11.5728 16.9348 11.3964 16.9168 11.2212C16.8989 11.0461 16.8259 10.8811 16.7083 10.75L15.5833 9.54999ZM14.3417 10.6667L15.0083 11.4167L13.9417 13.2667L12.9583 13.0667C12.3581 12.944 11.7338 13.0459 11.2038 13.3532C10.6738 13.6604 10.2751 14.1515 10.0833 14.7333L9.76666 15.6667H7.63333L7.33333 14.7167C7.14154 14.1349 6.74281 13.6437 6.21283 13.3365C5.68285 13.0293 5.05851 12.9273 4.45833 13.05L3.47499 13.25L2.39166 11.4083L3.05833 10.6583C3.46829 10.2 3.69494 9.6066 3.69494 8.99166C3.69494 8.37672 3.46829 7.78335 3.05833 7.32499L2.39166 6.57499L3.45833 4.74166L4.44166 4.94166C5.04185 5.06435 5.66618 4.96239 6.19617 4.65516C6.72615 4.34792 7.12487 3.85679 7.31666 3.27499L7.63333 2.33333H9.76666L10.0833 3.28333C10.2751 3.86513 10.6738 4.35626 11.2038 4.66349C11.7338 4.97073 12.3581 5.07268 12.9583 4.94999L13.9417 4.74999L15.0083 6.59999L14.3417 7.34999C13.9363 7.80729 13.7125 8.39723 13.7125 9.00833C13.7125 9.61943 13.9363 10.2094 14.3417 10.6667V10.6667ZM8.69999 5.66666C8.04072 5.66666 7.39626 5.86216 6.84809 6.22843C6.29993 6.5947 5.87269 7.1153 5.6204 7.72438C5.3681 8.33347 5.30209 9.00369 5.43071 9.6503C5.55933 10.2969 5.8768 10.8908 6.34297 11.357C6.80915 11.8232 7.40309 12.1407 8.04969 12.2693C8.6963 12.3979 9.36652 12.3319 9.97561 12.0796C10.5847 11.8273 11.1053 11.4001 11.4716 10.8519C11.8378 10.3037 12.0333 9.65927 12.0333 8.99999C12.0333 8.11594 11.6821 7.26809 11.057 6.64297C10.4319 6.01785 9.58405 5.66666 8.69999 5.66666V5.66666ZM8.69999 10.6667C8.37036 10.6667 8.04813 10.5689 7.77404 10.3858C7.49996 10.2026 7.28634 9.94234 7.1602 9.6378C7.03405 9.33326 7.00104 8.99815 7.06535 8.67484C7.12966 8.35154 7.2884 8.05457 7.52148 7.82148C7.75457 7.5884 8.05154 7.42966 8.37484 7.36535C8.69815 7.30104 9.03326 7.33405 9.3378 7.46019C9.64234 7.58634 9.90264 7.79996 10.0858 8.07404C10.2689 8.34813 10.3667 8.67036 10.3667 8.99999C10.3667 9.44202 10.1911 9.86594 9.87851 10.1785C9.56595 10.4911 9.14202 10.6667 8.69999 10.6667Z" fill="#71839B"/>
</svg>
