<svg width="18" height="18" viewBox="0 0 18 18" fill="none" xmlns="http://www.w3.org/2000/svg">
<path d="M9.49175 9.83325L7.57508 11.7416C7.49697 11.8191 7.43498 11.9112 7.39267 12.0128C7.35037 12.1143 7.32858 12.2232 7.32858 12.3333C7.32858 12.4433 7.35037 12.5522 7.39267 12.6537C7.43498 12.7553 7.49697 12.8475 7.57508 12.9249C7.65255 13.003 7.74472 13.065 7.84627 13.1073C7.94782 13.1496 8.05674 13.1714 8.16675 13.1714C8.27676 13.1714 8.38568 13.1496 8.48723 13.1073C8.58878 13.065 8.68095 13.003 8.75842 12.9249L12.0917 9.59159C12.1676 9.51233 12.2271 9.41888 12.2667 9.31659C12.3501 9.1137 12.3501 8.88614 12.2667 8.68325C12.2271 8.58096 12.1676 8.48751 12.0917 8.40825L8.75842 5.07492C8.68072 4.99722 8.58847 4.93559 8.48696 4.89354C8.38544 4.85149 8.27663 4.82984 8.16675 4.82984C8.05687 4.82984 7.94806 4.85149 7.84654 4.89354C7.74502 4.93559 7.65278 4.99722 7.57508 5.07492C7.49738 5.15262 7.43575 5.24486 7.3937 5.34638C7.35165 5.4479 7.33001 5.5567 7.33001 5.66659C7.33001 5.77647 7.35165 5.88528 7.3937 5.98679C7.43575 6.08831 7.49738 6.18055 7.57508 6.25825L9.49175 8.16659H1.50008C1.27907 8.16659 1.06711 8.25438 0.910826 8.41067C0.754545 8.56695 0.666748 8.77891 0.666748 8.99992C0.666748 9.22093 0.754545 9.4329 0.910826 9.58918C1.06711 9.74546 1.27907 9.83325 1.50008 9.83325H9.49175ZM9.00008 0.666587C7.44266 0.659634 5.91445 1.08926 4.5888 1.90675C3.26316 2.72423 2.19313 3.89684 1.50008 5.29159C1.40063 5.4905 1.38426 5.72077 1.45459 5.93175C1.52491 6.14273 1.67617 6.31713 1.87508 6.41659C2.07399 6.51604 2.30427 6.53241 2.51525 6.46208C2.72622 6.39176 2.90063 6.2405 3.00008 6.04159C3.52691 4.97769 4.32828 4.07377 5.32137 3.42324C6.31447 2.77272 7.46327 2.39918 8.64904 2.34125C9.83482 2.28331 11.0146 2.54307 12.0663 3.09368C13.1181 3.64429 14.0038 4.46578 14.6318 5.47325C15.2599 6.48072 15.6075 7.63763 15.6387 8.82441C15.67 10.0112 15.3838 11.1848 14.8097 12.2239C14.2356 13.2631 13.3944 14.13 12.373 14.7353C11.3517 15.3405 10.1873 15.662 9.00008 15.6666C7.75748 15.672 6.53854 15.3269 5.48316 14.671C4.42777 14.015 3.57871 13.0748 3.03341 11.9583C2.93396 11.7593 2.75956 11.6081 2.54858 11.5378C2.3376 11.4674 2.10733 11.4838 1.90841 11.5833C1.7095 11.6827 1.55825 11.8571 1.48792 12.0681C1.41759 12.2791 1.43396 12.5093 1.53341 12.7083C2.1941 14.0378 3.19802 15.1668 4.44131 15.9783C5.6846 16.7898 7.12212 17.2544 8.60518 17.3241C10.0882 17.3937 11.563 17.0659 12.8769 16.3745C14.1908 15.6831 15.2961 14.6532 16.0785 13.3914C16.8609 12.1296 17.292 10.6817 17.3272 9.19742C17.3624 7.71314 17.0004 6.24641 16.2786 4.94895C15.5569 3.65148 14.5016 2.57039 13.222 1.81751C11.9423 1.06462 10.4848 0.667284 9.00008 0.666587V0.666587Z" fill="#71839B"/>
</svg>
