<svg width="20" height="20" viewBox="0 0 20 20" fill="none" xmlns="http://www.w3.org/2000/svg">
<path d="M14.9999 10.9834V8.33341C14.9987 7.15268 14.5797 6.01047 13.8171 5.10906C13.0545 4.20765 11.9975 3.6052 10.8333 3.40841V2.50008C10.8333 2.27907 10.7455 2.06711 10.5892 1.91083C10.4329 1.75455 10.2209 1.66675 9.99992 1.66675C9.7789 1.66675 9.56694 1.75455 9.41066 1.91083C9.25438 2.06711 9.16658 2.27907 9.16658 2.50008V3.40841C8.00237 3.6052 6.94536 4.20765 6.18274 5.10906C5.42012 6.01047 5.00112 7.15268 4.99992 8.33341V10.9834C4.51363 11.1553 4.09242 11.4735 3.79403 11.8942C3.49565 12.3149 3.3347 12.8176 3.33325 13.3334V15.0001C3.33325 15.2211 3.42105 15.4331 3.57733 15.5893C3.73361 15.7456 3.94557 15.8334 4.16659 15.8334H6.78325C6.97515 16.5396 7.39409 17.1629 7.97542 17.6074C8.55675 18.0518 9.26817 18.2926 9.99992 18.2926C10.7317 18.2926 11.4431 18.0518 12.0244 17.6074C12.6058 17.1629 13.0247 16.5396 13.2166 15.8334H15.8333C16.0543 15.8334 16.2662 15.7456 16.4225 15.5893C16.5788 15.4331 16.6666 15.2211 16.6666 15.0001V13.3334C16.6651 12.8176 16.5042 12.3149 16.2058 11.8942C15.9074 11.4735 15.4862 11.1553 14.9999 10.9834ZM6.66659 8.33341C6.66659 7.44936 7.01777 6.60151 7.6429 5.97639C8.26802 5.35127 9.11586 5.00008 9.99992 5.00008C10.884 5.00008 11.7318 5.35127 12.3569 5.97639C12.9821 6.60151 13.3333 7.44936 13.3333 8.33341V10.8334H6.66659V8.33341ZM9.99992 16.6667C9.70906 16.665 9.42373 16.5872 9.17228 16.441C8.92083 16.2948 8.71201 16.0853 8.56659 15.8334H11.4333C11.2878 16.0853 11.079 16.2948 10.8276 16.441C10.5761 16.5872 10.2908 16.665 9.99992 16.6667ZM14.9999 14.1667H4.99992V13.3334C4.99992 13.1124 5.08772 12.9004 5.244 12.7442C5.40028 12.5879 5.61224 12.5001 5.83325 12.5001H14.1666C14.3876 12.5001 14.5996 12.5879 14.7558 12.7442C14.9121 12.9004 14.9999 13.1124 14.9999 13.3334V14.1667Z" fill="#71839B"/>
</svg>
