<svg width="22" height="22" viewBox="0 0 22 22" fill="none" xmlns="http://www.w3.org/2000/svg">
<path d="M5.50008 10.0834C5.31878 10.0834 5.14155 10.1371 4.99081 10.2379C4.84006 10.3386 4.72257 10.4817 4.65319 10.6492C4.58381 10.8167 4.56566 11.0011 4.60103 11.1789C4.6364 11.3567 4.7237 11.52 4.8519 11.6482C4.9801 11.7764 5.14343 11.8637 5.32125 11.8991C5.49906 11.9345 5.68338 11.9163 5.85087 11.8469C6.01837 11.7775 6.16154 11.6601 6.26226 11.5093C6.36299 11.3586 6.41675 11.1813 6.41675 11C6.41675 10.7569 6.32017 10.5238 6.14826 10.3519C5.97635 10.18 5.7432 10.0834 5.50008 10.0834ZM16.5001 10.0834C16.3188 10.0834 16.1416 10.1371 15.9908 10.2379C15.8401 10.3386 15.7226 10.4817 15.6532 10.6492C15.5838 10.8167 15.5657 11.0011 15.601 11.1789C15.6364 11.3567 15.7237 11.52 15.8519 11.6482C15.9801 11.7764 16.1434 11.8637 16.3212 11.8991C16.4991 11.9345 16.6834 11.9163 16.8509 11.8469C17.0184 11.7775 17.1615 11.6601 17.2623 11.5093C17.363 11.3586 17.4167 11.1813 17.4167 11C17.4167 10.7569 17.3202 10.5238 17.1483 10.3519C16.9764 10.18 16.7432 10.0834 16.5001 10.0834ZM18.3334 4.58337H3.66675C2.9374 4.58337 2.23793 4.87311 1.7222 5.38883C1.20648 5.90456 0.916748 6.60403 0.916748 7.33337V14.6667C0.916748 15.3961 1.20648 16.0955 1.7222 16.6113C2.23793 17.127 2.9374 17.4167 3.66675 17.4167H18.3334C19.0628 17.4167 19.7622 17.127 20.278 16.6113C20.7937 16.0955 21.0834 15.3961 21.0834 14.6667V7.33337C21.0834 6.60403 20.7937 5.90456 20.278 5.38883C19.7622 4.87311 19.0628 4.58337 18.3334 4.58337ZM19.2501 14.6667C19.2501 14.9098 19.1535 15.143 18.9816 15.3149C18.8097 15.4868 18.5765 15.5834 18.3334 15.5834H3.66675C3.42363 15.5834 3.19048 15.4868 3.01857 15.3149C2.84666 15.143 2.75008 14.9098 2.75008 14.6667V7.33337C2.75008 7.09026 2.84666 6.8571 3.01857 6.68519C3.19048 6.51328 3.42363 6.41671 3.66675 6.41671H18.3334C18.5765 6.41671 18.8097 6.51328 18.9816 6.68519C19.1535 6.8571 19.2501 7.09026 19.2501 7.33337V14.6667ZM11.0001 8.25004C10.4562 8.25004 9.9245 8.41133 9.47226 8.7135C9.02003 9.01567 8.66755 9.44516 8.45941 9.94766C8.25127 10.4502 8.19681 11.0031 8.30292 11.5365C8.40903 12.07 8.67094 12.56 9.05554 12.9446C9.44013 13.3292 9.93014 13.5911 10.4636 13.6972C10.997 13.8033 11.55 13.7488 12.0525 13.5407C12.555 13.3326 12.9844 12.9801 13.2866 12.5279C13.5888 12.0756 13.7501 11.5439 13.7501 11C13.7501 10.2707 13.4604 9.57122 12.9446 9.0555C12.4289 8.53977 11.7294 8.25004 11.0001 8.25004ZM11.0001 11.9167C10.8188 11.9167 10.6416 11.8629 10.4908 11.7622C10.3401 11.6615 10.2226 11.5183 10.1532 11.3508C10.0838 11.1833 10.0657 10.999 10.101 10.8212C10.1364 10.6434 10.2237 10.4801 10.3519 10.3519C10.4801 10.2237 10.6434 10.1364 10.8212 10.101C10.9991 10.0656 11.1834 10.0838 11.3509 10.1532C11.5184 10.2225 11.6615 10.34 11.7623 10.4908C11.863 10.6415 11.9167 10.8187 11.9167 11C11.9167 11.2432 11.8202 11.4763 11.6483 11.6482C11.4764 11.8201 11.2432 11.9167 11.0001 11.9167Z" fill="white"/>
</svg>
