<svg width="16" height="18" viewBox="0 0 16 18" fill="none" xmlns="http://www.w3.org/2000/svg">
<path d="M11.4375 5.09375V4.15625C11.4375 4.07031 11.3672 4 11.2812 4H3.78125C3.69531 4 3.625 4.07031 3.625 4.15625V5.09375C3.625 5.17969 3.69531 5.25 3.78125 5.25H11.2812C11.3672 5.25 11.4375 5.17969 11.4375 5.09375ZM3.78125 6.8125C3.69531 6.8125 3.625 6.88281 3.625 6.96875V7.90625C3.625 7.99219 3.69531 8.0625 3.78125 8.0625H7.375C7.46094 8.0625 7.53125 7.99219 7.53125 7.90625V6.96875C7.53125 6.88281 7.46094 6.8125 7.375 6.8125H3.78125ZM11.125 9.07812C8.79492 9.07812 6.90625 10.9668 6.90625 13.2969C6.90625 15.627 8.79492 17.5156 11.125 17.5156C13.4551 17.5156 15.3438 15.627 15.3438 13.2969C15.3438 10.9668 13.4551 9.07812 11.125 9.07812ZM13.2246 15.3965C12.6641 15.957 11.918 16.2656 11.125 16.2656C10.332 16.2656 9.58594 15.957 9.02539 15.3965C8.46484 14.8359 8.15625 14.0898 8.15625 13.2969C8.15625 12.5039 8.46484 11.7578 9.02539 11.1973C9.58594 10.6367 10.332 10.3281 11.125 10.3281C11.918 10.3281 12.6641 10.6367 13.2246 11.1973C13.7852 11.7578 14.0938 12.5039 14.0938 13.2969C14.0938 14.0898 13.7852 14.8359 13.2246 15.3965ZM12.8633 11.8125H11.998C11.9473 11.8125 11.9004 11.8359 11.8711 11.877L10.6309 13.5918L10.1797 12.9688C10.1652 12.9486 10.1462 12.9323 10.1241 12.921C10.102 12.9098 10.0775 12.9041 10.0527 12.9043H9.19141C9.06445 12.9043 8.99023 13.0488 9.06445 13.1523L10.5059 15.1465C10.5684 15.2324 10.6953 15.2324 10.7578 15.1465L12.9883 12.0605C13.0645 11.957 12.9902 11.8125 12.8633 11.8125ZM6.59375 15.6406H2.0625V1.89062H13V8.60938C13 8.69531 13.0703 8.76562 13.1562 8.76562H14.25C14.3359 8.76562 14.4062 8.69531 14.4062 8.60938V1.10938C14.4062 0.763672 14.127 0.484375 13.7812 0.484375H1.28125C0.935547 0.484375 0.65625 0.763672 0.65625 1.10938V16.4219C0.65625 16.7676 0.935547 17.0469 1.28125 17.0469H6.59375C6.67969 17.0469 6.75 16.9766 6.75 16.8906V15.7969C6.75 15.7109 6.67969 15.6406 6.59375 15.6406Z" fill="#71839B"/>
</svg>
